<?xml version="1.0" encoding="UTF-8"?>
<svg version="1.1" xmlns="http://www.w3.org/2000/svg" width="300" height="300">
<path d="M0 0 C99 0 198 0 300 0 C300 99 300 198 300 300 C201 300 102 300 0 300 C0 201 0 102 0 0 Z " fill="#FCFDFE" transform="translate(0,0)"/>
<path d="M0 0 C1.98 0 3.96 0 6 0 C6 20.13 6 40.26 6 61 C7.32 61.66 8.64 62.32 10 63 C12.66992424 60.33007576 12.27199666 58.99759977 12.31884766 55.26513672 C12.33871735 54.06404266 12.35858704 52.86294861 12.37905884 51.62545776 C12.39061005 50.32335358 12.40216125 49.02124939 12.4140625 47.6796875 C12.4327677 46.33731893 12.45234062 44.99496219 12.4727478 43.65261841 C12.52414391 40.11813322 12.56372926 36.58360988 12.60089111 33.0489502 C12.64088414 29.44269312 12.69199783 25.83659578 12.7421875 22.23046875 C12.8390351 15.15376271 12.92341142 8.07695661 13 1 C14.65 1 16.3 1 18 1 C18 20.8 18 40.6 18 61 C19.32 61.66 20.64 62.32 22 63 C24.66992424 60.33007576 24.27199666 58.99759977 24.31884766 55.26513672 C24.33871735 54.06404266 24.35858704 52.86294861 24.37905884 51.62545776 C24.39061005 50.32335358 24.40216125 49.02124939 24.4140625 47.6796875 C24.4327677 46.33731893 24.45234062 44.99496219 24.4727478 43.65261841 C24.52414391 40.11813322 24.56372926 36.58360988 24.60089111 33.0489502 C24.64088414 29.44269312 24.69199783 25.83659578 24.7421875 22.23046875 C24.8390351 15.15376271 24.92341142 8.07695661 25 1 C26.65 1 28.3 1 30 1 C30 20.8 30 40.6 30 61 C31.32 61.66 32.64 62.32 34 63 C34.029729 64.94434937 34.029729 64.94434937 34.06005859 66.92797852 C34.13637835 71.75694546 34.22505469 76.58562143 34.31738281 81.41430664 C34.35556383 83.50051104 34.39043533 85.58677882 34.421875 87.6730957 C34.46776227 90.679429 34.52571733 93.68532999 34.5859375 96.69140625 C34.59748871 97.61772354 34.60903992 98.54404083 34.62094116 99.49842834 C34.73850959 104.70763924 35.32565832 109.06208402 37 114 C37.28359375 114.92683594 37.5671875 115.85367188 37.859375 116.80859375 C41.93170742 128.82911882 48.69201273 136.34600637 60 142 C65.61 142.99 71.22 143.98 77 145 C77 165.46 77 185.92 77 207 C58.4404022 207 58.4404022 207 52.25 205.3125 C51.19171997 205.04131348 51.19171997 205.04131348 50.11206055 204.76464844 C22.90669147 197.50163461 0.49227295 179.20678778 -13.73828125 155.12890625 C-19.03621775 145.74203252 -22.64330273 135.50454697 -25 125 C-25.24290771 123.99287712 -25.24290771 123.99287712 -25.49072266 122.96540833 C-27.01489421 116.16649078 -27.29169136 109.66952029 -27.265625 102.71875 C-27.26753845 101.58344849 -27.2694519 100.44814697 -27.27142334 99.27844238 C-27.2727759 96.8985166 -27.26914492 94.51858321 -27.26074219 92.13867188 C-27.24994954 88.4829073 -27.26070993 84.82762526 -27.2734375 81.171875 C-27.2721173 78.85416558 -27.26955781 76.53645646 -27.265625 74.21875 C-27.26967346 73.12300659 -27.27372192 72.02726318 -27.27789307 70.89831543 C-27.27158875 69.88966431 -27.26528442 68.88101318 -27.25878906 67.84179688 C-27.25719788 66.95262573 -27.25560669 66.06345459 -27.25396729 65.14733887 C-27 63 -27 63 -25 61 C-24.66790239 58.3710262 -24.66790239 58.3710262 -24.68115234 55.26513672 C-24.66128265 54.06404266 -24.64141296 52.86294861 -24.62094116 51.62545776 C-24.60938995 50.32335358 -24.59783875 49.02124939 -24.5859375 47.6796875 C-24.5672323 46.33731893 -24.54765938 44.99496219 -24.5272522 43.65261841 C-24.47585609 40.11813322 -24.43627074 36.58360988 -24.39910889 33.0489502 C-24.35911586 29.44269312 -24.30800217 25.83659578 -24.2578125 22.23046875 C-24.1609649 15.15376271 -24.07658858 8.07695661 -24 1 C-22.02 1 -20.04 1 -18 1 C-17.99413376 1.74724335 -17.98826752 2.49448669 -17.98222351 3.26437378 C-17.92437676 10.2982851 -17.85234702 17.33187358 -17.76428509 24.36546135 C-17.71951161 27.98173684 -17.68027148 31.59789785 -17.65356445 35.21435547 C-17.62760019 38.70291529 -17.58724823 42.19103621 -17.53681374 45.6793251 C-17.51194982 47.66126877 -17.50208215 49.64338201 -17.49235535 51.62545776 C-17.47256119 52.82655182 -17.45276703 54.02764587 -17.43237305 55.26513672 C-17.42126999 56.32658905 -17.41016693 57.38804138 -17.39872742 58.48165894 C-17.26714737 59.31271149 -17.13556732 60.14376404 -17 61 C-16.01 61.66 -15.02 62.32 -14 63 C-12.23246465 61.23246465 -12.82913939 58.68441194 -12.79467773 56.28686523 C-12.77473251 55.0656749 -12.75478729 53.84448456 -12.73423767 52.58628845 C-12.71725209 51.24372487 -12.70037333 49.90115993 -12.68359375 48.55859375 C-12.66303053 47.19238139 -12.64203423 45.82617549 -12.62062073 44.4599762 C-12.56533465 40.85805476 -12.51595437 37.25607529 -12.46777344 33.65405273 C-12.41760597 29.98090428 -12.36189515 26.30784045 -12.30664062 22.63476562 C-12.19897918 15.42324868 -12.09755213 8.21166153 -12 1 C-10.02 1 -8.04 1 -6 1 C-5.99120064 2.12086502 -5.99120064 2.12086502 -5.98222351 3.26437378 C-5.92437676 10.2982851 -5.85234702 17.33187358 -5.76428509 24.36546135 C-5.71951161 27.98173684 -5.68027148 31.59789785 -5.65356445 35.21435547 C-5.62760019 38.70291529 -5.58724823 42.19103621 -5.53681374 45.6793251 C-5.51194982 47.66126877 -5.50208215 49.64338201 -5.49235535 51.62545776 C-5.47256119 52.82655182 -5.45276703 54.02764587 -5.43237305 55.26513672 C-5.42126999 56.32658905 -5.41016693 57.38804138 -5.39872742 58.48165894 C-5.26714737 59.31271149 -5.13556732 60.14376404 -5 61 C-4.01 61.66 -3.02 62.32 -2 63 C-0.65551267 60.31102533 -0.83804236 58.18408351 -0.79467773 55.17333984 C-0.77473251 53.95222504 -0.75478729 52.73111023 -0.73423767 51.47299194 C-0.71725344 50.13564177 -0.70037463 48.79829025 -0.68359375 47.4609375 C-0.66302397 46.09615447 -0.64202749 44.73137782 -0.62062073 43.36660767 C-0.56540241 39.77292027 -0.51599213 36.1791754 -0.46777344 32.58538818 C-0.41755663 28.91885254 -0.36187151 25.25240044 -0.30664062 21.5859375 C-0.199062 14.39069574 -0.09761643 7.19538454 0 0 Z " fill="#0750A1" transform="translate(72,47)"/>
<path d="M0 0 C16.54085522 0 27.49477071 0.34500547 41.76171875 7.03515625 C44.06582047 8.07848425 44.06582047 8.07848425 46.84375 8.859375 C50.50397608 10.18212997 53.58804251 12.05303139 56.8125 14.1875 C57.42633545 14.5896875 58.0401709 14.991875 58.67260742 15.40625 C72.89576686 24.82234399 84.68962753 35.97199392 93 51 C93.48859497 51.86842529 93.48859497 51.86842529 93.98706055 52.75439453 C104.24899998 71.23869691 106.78917189 88.51186015 106.48706055 109.5402832 C106.43674166 113.11639479 106.42551348 116.6911409 106.41992188 120.26757812 C106.40586671 122.54428563 106.38967357 124.82098118 106.37109375 127.09765625 C106.3630497 128.69892113 106.3630497 128.69892113 106.35484314 130.33253479 C106.33885574 131.31213669 106.32286835 132.29173859 106.30639648 133.30102539 C106.29575668 134.16305069 106.28511688 135.02507599 106.27415466 135.91322327 C106 138 106 138 104 140 C103.66735445 142.8323903 103.66735445 142.8323903 103.68115234 146.19384766 C103.66128265 147.49504547 103.64141296 148.79624329 103.62094116 150.13687134 C103.6090638 151.5626 103.597401 152.98833045 103.5859375 154.4140625 C103.56723326 155.86853138 103.54766041 157.32298933 103.5272522 158.7774353 C103.47584606 162.60784469 103.43626601 166.43828928 103.39910889 170.26885986 C103.35912218 174.17672497 103.3080056 178.08444252 103.2578125 181.9921875 C103.1609529 189.66135723 103.07658053 197.33059813 103 205 C101.35 205 99.7 205 98 205 C97.99191315 204.20708557 97.98382629 203.41417114 97.97549438 202.597229 C97.89753394 195.12252853 97.81023901 187.64802285 97.71247292 180.17355728 C97.66253995 176.33091081 97.61620977 172.48829143 97.578125 168.64550781 C97.5412341 164.93658312 97.49486404 161.22788671 97.44193649 157.51915741 C97.42341271 156.10463213 97.40829728 154.69005795 97.39665604 153.27545929 C97.37975987 151.29324238 97.34959077 149.31115208 97.31884766 147.32910156 C97.30552399 146.20103088 97.29220032 145.07296021 97.2784729 143.91070557 C97.00770263 141.08051088 96.46774456 139.4027776 95 137 C94.34 137 93.68 137 93 137 C91.89845533 140.30463401 91.84181283 142.82610919 91.79467773 146.30737305 C91.77473251 147.60849533 91.75478729 148.90961761 91.73423767 150.25016785 C91.71725454 151.6706836 91.70037569 153.0912006 91.68359375 154.51171875 C91.66301863 155.96475306 91.64202201 157.41778146 91.62062073 158.87080383 C91.56545766 162.6929953 91.51602302 166.51524026 91.46777344 170.33752441 C91.41751628 174.23873652 91.36185222 178.13987105 91.30664062 182.04101562 C91.19912959 189.69394469 91.09766902 197.34693833 91 205 C89.35 205 87.7 205 86 205 C85.99191315 204.20708557 85.98382629 203.41417114 85.97549438 202.597229 C85.89753394 195.12252853 85.81023901 187.64802285 85.71247292 180.17355728 C85.66253995 176.33091081 85.61620977 172.48829143 85.578125 168.64550781 C85.5412341 164.93658312 85.49486404 161.22788671 85.44193649 157.51915741 C85.42341271 156.10463213 85.40829728 154.69005795 85.39665604 153.27545929 C85.37975987 151.29324238 85.34959077 149.31115208 85.31884766 147.32910156 C85.30552399 146.20103088 85.29220032 145.07296021 85.2784729 143.91070557 C85.00770263 141.08051088 84.46774456 139.4027776 83 137 C82.34 137 81.68 137 81 137 C79.88983656 140.33049032 79.84147391 142.88945666 79.79467773 146.39916992 C79.78477814 147.04334366 79.77487854 147.6875174 79.76467896 148.35121155 C79.73312533 150.4775934 79.70833095 152.60399758 79.68359375 154.73046875 C79.66301891 156.20592322 79.6420223 157.68137186 79.62062073 159.15681458 C79.56545474 163.03819051 79.51602138 166.91961915 79.46777344 170.80108643 C79.41751842 174.76262091 79.36185324 178.72407894 79.30664062 182.68554688 C79.19912601 190.45696649 79.09766623 198.22844972 79 206 C77.02 206 75.04 206 73 206 C72.99413376 205.1775882 72.98826752 204.35517639 72.98222351 203.50784302 C72.92438445 195.76756709 72.85235924 188.02761632 72.76428509 180.28763008 C72.71950559 176.30814757 72.68026666 172.32876922 72.65356445 168.34912109 C72.6276064 164.51045449 72.58725852 160.67218715 72.53681374 156.83376694 C72.52009395 155.36735871 72.50861158 153.90088135 72.50238609 152.43439102 C72.49279979 150.38438032 72.46481019 148.33540288 72.43237305 146.28564453 C72.42126999 145.11760284 72.41016693 143.94956116 72.39872742 142.74612427 C72.26714737 141.83990326 72.13556732 140.93368225 72 140 C70.515 139.01 70.515 139.01 69 138 C66.25133034 140.74866966 66.72574989 142.34359317 66.68115234 146.19384766 C66.66128265 147.49504547 66.64141296 148.79624329 66.62094116 150.13687134 C66.6090638 151.5626 66.597401 152.98833045 66.5859375 154.4140625 C66.56723326 155.86853138 66.54766041 157.32298933 66.5272522 158.7774353 C66.47584606 162.60784469 66.43626601 166.43828928 66.39910889 170.26885986 C66.35912218 174.17672497 66.3080056 178.08444252 66.2578125 181.9921875 C66.1609529 189.66135723 66.07658053 197.33059813 66 205 C64.35 205 62.7 205 61 205 C60.99191315 204.20708557 60.98382629 203.41417114 60.97549438 202.597229 C60.89753394 195.12252853 60.81023901 187.64802285 60.71247292 180.17355728 C60.66253995 176.33091081 60.61620977 172.48829143 60.578125 168.64550781 C60.5412341 164.93658312 60.49486404 161.22788671 60.44193649 157.51915741 C60.42341271 156.10463213 60.40829728 154.69005795 60.39665604 153.27545929 C60.37975987 151.29324238 60.34959077 149.31115208 60.31884766 147.32910156 C60.30552399 146.20103088 60.29220032 145.07296021 60.2784729 143.91070557 C60.00770263 141.08051088 59.46774456 139.4027776 58 137 C57.34 137 56.68 137 56 137 C54.88983656 140.33049032 54.84147391 142.88945666 54.79467773 146.39916992 C54.78477814 147.04334366 54.77487854 147.6875174 54.76467896 148.35121155 C54.73312533 150.4775934 54.70833095 152.60399758 54.68359375 154.73046875 C54.66301891 156.20592322 54.6420223 157.68137186 54.62062073 159.15681458 C54.56545474 163.03819051 54.51602138 166.91961915 54.46777344 170.80108643 C54.41751842 174.76262091 54.36185324 178.72407894 54.30664062 182.68554688 C54.19912601 190.45696649 54.09766623 198.22844972 54 206 C52.02 206 50.04 206 48 206 C47.98786972 204.76638229 47.98786972 204.76638229 47.97549438 203.50784302 C47.89764119 195.76763178 47.81037911 188.02761158 47.71247292 180.28763008 C47.66246894 176.30816273 47.61613953 172.32872247 47.578125 168.34912109 C47.54132363 164.51053118 47.49497825 160.6721656 47.44193649 156.83376694 C47.42336503 155.36734822 47.40826728 153.90088137 47.39665604 152.43439102 C47.37984012 150.38457379 47.35081802 148.33527344 47.31884766 146.28564453 C47.30552399 145.11760284 47.29220032 143.94956116 47.2784729 142.74612427 C47.27773433 139.85629428 47.27773433 139.85629428 45 138 C44.7484436 136.12513733 44.7484436 136.12513733 44.74462891 133.81665039 C44.73766998 132.95137222 44.73071106 132.08609406 44.72354126 131.19459534 C44.72453827 130.25510544 44.72553528 129.31561554 44.7265625 128.34765625 C44.7062501 126.35351025 44.68539892 124.35936968 44.6640625 122.36523438 C44.64158842 119.22545823 44.62504399 116.08589742 44.61914062 112.94604492 C44.56995509 97.4292374 44.28534249 84.7983126 33 73 C27.27693444 67.6279775 21.39104307 64.51016557 14 62 C12.96875 61.608125 11.9375 61.21625 10.875 60.8125 C7.20102458 59.69632988 7.20102458 59.69632988 0 59 C0 39.53 0 20.06 0 0 Z " fill="#0850A1" transform="translate(148,48)"/>
<path d="M0 0 C7.54568593 3.95074938 12.70556748 10.16748368 15.40234375 18.2578125 C16.28972888 26.74743517 16.96051777 34.28098701 11.77734375 41.5078125 C10.371778 43.13816997 8.91757037 44.72883609 7.40234375 46.2578125 C6.86738281 46.80953125 6.33242187 47.36125 5.78125 47.9296875 C0.00147935 53.25522143 -6.3250991 54.82640899 -13.91015625 54.7578125 C-14.6563623 54.75136719 -15.40256836 54.74492187 -16.17138672 54.73828125 C-24.63832678 54.45905042 -30.53276645 51.6974899 -36.47265625 45.6328125 C-41.76229054 38.98012824 -44.33991505 31.15179888 -43.91015625 22.6640625 C-42.84772794 14.48336451 -39.71112186 8.81440797 -33.59765625 3.2578125 C-23.41971231 -4.26826348 -11.70813428 -4.91707255 0 0 Z " fill="#EA1F27" transform="translate(163.59765625,123.7421875)"/>
<path d="M0 0 C1.98 0 3.96 0 6 0 C6 20.46 6 40.92 6 62 C5.01 61.67 4.02 61.34 3 61 C1.68 61.99 0.36 62.98 -1 64 C-0.67 42.88 -0.34 21.76 0 0 Z " fill="#195AA3" transform="translate(48,48)"/>
<path d="M0 0 C1.98 0 3.96 0 6 0 C6 20.13 6 40.26 6 61 C5.67 61 5.34 61 5 61 C5 41.53 5 22.06 5 2 C4.01 2 3.02 2 2 2 C2 21.47 2 40.94 2 61 C1.01 61 0.02 61 -1 61 C-0.67 40.87 -0.34 20.74 0 0 Z " fill="#487BB6" transform="translate(72,47)"/>
<path d="M0 0 C1.32 0.33 2.64 0.66 4 1 C4.04951788 5.4840341 4.08577526 9.96792239 4.10986328 14.45214844 C4.11990744 15.97691623 4.13354531 17.50166484 4.15087891 19.02636719 C4.17519738 21.22075138 4.18649889 23.41488042 4.1953125 25.609375 C4.20578613 26.92905273 4.21625977 28.24873047 4.22705078 29.60839844 C4.00898871 32.86572993 3.49871011 34.22493177 2 37 C1.63675609 39.60750922 1.63675609 39.60750922 1.5859375 42.421875 C1.54726563 43.44667969 1.50859375 44.47148438 1.46875 45.52734375 C1.42234375 47.12255859 1.42234375 47.12255859 1.375 48.75 C1.33632813 49.82894531 1.29765625 50.90789062 1.2578125 52.01953125 C1.16365369 54.67951775 1.07802613 57.3394994 1 60 C0.67 60 0.34 60 0 60 C0 40.2 0 20.4 0 0 Z " fill="#2160A9" transform="translate(48,48)"/>
<path d="M0 0 C1.97161865 1.10578918 1.97161865 1.10578918 4 3 C4.48101807 5.82841492 4.48101807 5.82841492 4.45410156 9.30737305 C4.45379944 10.60849533 4.45349731 11.90961761 4.45318604 13.25016785 C4.43275932 14.67069102 4.41189533 16.09120796 4.390625 17.51171875 C4.38316369 18.9647392 4.37747024 20.41776972 4.37347412 21.87080383 C4.35820878 25.69332715 4.3189202 29.51524153 4.2746582 33.33752441 C4.23372432 37.23860435 4.21546719 41.13978278 4.1953125 45.04101562 C4.15242596 52.69428789 4.08416485 60.34705859 4 68 C3.67 68 3.34 68 3 68 C2.505 36.32 2.505 36.32 2 4 C0.68 4 -0.64 4 -2 4 C-2 25.45 -2 46.9 -2 69 C-3.98 69 -5.96 69 -8 69 C-8 68.67 -8 68.34 -8 68 C-6.35 68 -4.7 68 -3 68 C-3.00666183 67.19233688 -3.01332367 66.38467377 -3.02018738 65.55253601 C-3.08027057 57.94524203 -3.12596002 50.33806292 -3.15543652 42.73059368 C-3.17110009 38.81939774 -3.19235063 34.90839766 -3.22631836 30.99731445 C-3.25888769 27.22367741 -3.2768478 23.4502289 -3.28463173 19.67646217 C-3.29017965 18.23591964 -3.30101336 16.79538754 -3.31719017 15.35492516 C-3.33892959 13.3391766 -3.3402251 11.32323879 -3.34057617 9.30737305 C-3.34723801 8.15931686 -3.35389984 7.01126068 -3.36076355 5.82841492 C-3 3 -3 3 -1.47871399 1.10578918 C-0.99073837 0.74087875 -0.50276276 0.37596832 0 0 Z " fill="#97B7D9" transform="translate(217,185)"/>
<path d="M0 0 C0.66 0 1.32 0 2 0 C4.28200697 2.28302746 4.96099426 3.68529462 5.36076355 6.91070557 C5.35410172 8.03877625 5.34743988 9.16684692 5.34057617 10.32910156 C5.34034958 11.61012756 5.34012299 12.89115356 5.33988953 14.21099854 C5.32457074 15.60421093 5.30892278 16.99741974 5.29296875 18.390625 C5.28737097 19.81979934 5.28310173 21.24897946 5.28010559 22.67816162 C5.26867101 26.4331461 5.2392162 30.18778046 5.20599365 33.94262695 C5.1752626 37.77680729 5.1615938 41.61104441 5.14648438 45.4453125 C5.1143448 52.96370099 5.0631657 60.48180137 5 68 C4.67 68 4.34 68 4 68 C3.67 47.21 3.34 26.42 3 5 C2.01 5 1.02 5 0 5 C-0.33 26.12 -0.66 47.24 -1 69 C-1.33 69 -1.66 69 -2 69 C-2.04631606 60.44649477 -2.08186543 51.89304184 -2.10362434 43.33944225 C-2.11406689 39.36777 -2.12823463 35.39618346 -2.15087891 31.42456055 C-2.17259058 27.59257984 -2.18456508 23.76068165 -2.18975449 19.92864418 C-2.19345326 18.46578993 -2.20067596 17.00294025 -2.21146011 15.54012108 C-2.22595298 13.49303764 -2.2279789 11.44629631 -2.22705078 9.39916992 C-2.231492 8.23334885 -2.23593323 7.06752777 -2.24050903 5.86637878 C-2 3 -2 3 0 0 Z " fill="#C9DEF3" transform="translate(204,185)"/>
<path d="M0 0 C1.97558594 1.13989258 1.97558594 1.13989258 4 3 C4.45410156 5.63549805 4.45410156 5.63549805 4.390625 8.76171875 C4.37773437 9.87998047 4.36484375 10.99824219 4.3515625 12.15039062 C4.31804687 13.31763672 4.28453125 14.48488281 4.25 15.6875 C4.23195312 16.86634766 4.21390625 18.04519531 4.1953125 19.25976562 C4.14811859 22.17398926 4.08229077 25.08659031 4 28 C3.67 28 3.34 28 3 28 C2.67 20.08 2.34 12.16 2 4 C1.01 4 0.02 4 -1 4 C-0.67 2.68 -0.34 1.36 0 0 Z " fill="#C1D8F1" transform="translate(217,185)"/>
<path d="M0 0 C-0.54269531 0.26554687 -1.08539063 0.53109375 -1.64453125 0.8046875 C-2.71767578 1.33449219 -2.71767578 1.33449219 -3.8125 1.875 C-4.52019531 2.22304687 -5.22789062 2.57109375 -5.95703125 2.9296875 C-8.21246418 4.0656486 -8.21246418 4.0656486 -11 6 C-11.66 5.34 -12.32 4.68 -13 4 C-4.95935583 -1.53911043 -4.95935583 -1.53911043 0 0 Z " fill="#E85159" transform="translate(145,122)"/>
<path d="M0 0 C0.33 0 0.66 0 1 0 C1 4.95 1 9.9 1 15 C1.66 15 2.32 15 3 15 C3.33 15.99 3.66 16.98 4 18 C3.01 18 2.02 18 1 18 C0 17 0 17 -0.09765625 13.18359375 C-0.09098089 11.60153318 -0.07901875 10.01948841 -0.0625 8.4375 C-0.05798828 7.63119141 -0.05347656 6.82488281 -0.04882812 5.99414062 C-0.03700518 3.99606244 -0.01906914 1.99802217 0 0 Z " fill="#E8F4F7" transform="translate(67,92)"/>
</svg>
